#!OML:ASF H:\BabyWalks\Project 1\Capture day 1\Session 1\baby.ASF
:FULLY-SPECIFIED
:DEGREES
1141
root 46.5309 17.5809 0.779823 -337.98 99.6599 -342.934
lowerback 20.9591 0.0141898 2.8706
upperback 6.31078 1.05785 -0.302017
thorax -4.79799 0.716556 -2.23481
lowerneck 0.957128 9.02839 10.0163
upperneck -1.76426 12.1732 -13.8848
head 0.820369 6.15463 -5.57815
rclavicle -1.799e-014 -1.0138e-014
rhumerus -39.5691 11.442 -82.902
rradius 48.7175
rwrist -0.773505
rhand -11.5919 -18.3894
rfingers 7.12502
rthumb 14.4502 -47.8663
lclavicle -1.799e-014 -1.0138e-014
lhumerus -34.8468 -17.0931 78.2701
lradius 60.5113
lwrist 2.30281
lhand -3.34782 8.75894
lfingers 7.12502
lthumb 22.3801 37.4826
rfemur -17.0741 12.363 22.6613
rtibia 27.0189
rfoot -14.815 1.04805
rtoes 4.34099
lfemur -18.9658 -6.46873 -8.7
ltibia 28.1904
lfoot -18.8524 -7.11542
ltoes -3.82148
1142
root 46.5343 17.5782 0.783387 -338.558 99.7774 -343.377
lowerback 20.9166 0.00390627 2.92576
upperback 6.30575 1.05498 -0.290685
thorax -4.78086 0.71532 -2.25258
lowerneck 1.0393 9.21078 10.0481
upperneck -1.72932 12.4312 -13.992
head 0.857448 6.28626 -5.60496
rclavicle -1.58034e-014 1.43125e-014
rhumerus -39.5904 11.45 -83.009
rradius 48.8654
rwrist -0.839988
rhand -11.552 -18.3407
rfingers 7.12502
rthumb 14.4887 -47.8148
lclavicle -1.58034e-014 1.43125e-014
lhumerus -34.8832 -17.0341 78.3921
lradius 59.6722
lwrist 2.10187
lhand -2.8198 8.91033
lfingers 7.12502
lthumb 22.8869 37.5721
rfemur -16.9208 12.3075 22.677
rtibia 27.096
rfoot -14.9175 0.934023
rtoes 4.27591
lfemur -18.8315 -6.56794 -8.74293
ltibia 28.1651
lfoot -18.8553 -7.17364
ltoes -3.82413
1143
root 46.5379 17.5753 0.787254 -339.142 99.8999 -343.815
lowerback 20.879 0.000176258 2.98781
upperback 6.30278 1.06226 -0.282375
thorax -4.76319 0.719235 -2.28006
lowerneck 1.1164 9.39257 10.0968
upperneck -1.68558 12.6894 -14.1063
head 0.89988 6.41763 -5.63554
rclavicle -8.94531e-016 -1.59028e-015
rhumerus -39.618 11.4395 -83.1183
rradius 49.0053
rwrist -0.901031
rhand -11.5239 -18.287
rfingers 7.12502
rthumb 14.5158 -47.7591
lclavicle -8.94531e-016 -1.59028e-015
lhumerus -34.909 -16.9769 78.5028
lradius 58.8361
lwrist 1.88788
lhand -2.28 9.06942
lfingers 7.12502
lthumb 23.4048 37.6662
rfemur -16.7553 12.251 22.697
rtibia 27.1767
rfoot -15.0235 0.816225
rtoes 4.2146
lfemur -18.6857 -6.67431 -8.78585
ltibia 28.1399
lfoot -18.8613 -7.23155
ltoes -3.83381
1144
root 46.5418 17.5721 0.791424 -339.735 100.025 -344.253
lowerback 20.8418 0.00231754 3.04817
upperback 6.30398 1.07718 -0.273349
thorax -4.74085 0.727208 -2.3076
lowerneck 1.19466 9.5743 10.1503
upperneck -1.64002 12.9483 -14.223
head 0.94365 6.54934 -5.66722
rclavicle 7.65321e-015 -1.33186e-014
rhumerus -39.646 11.4205 -83.2264
rradius 49.1361
rwrist -0.958568
rhand -11.5038 -18.235
rfingers 7.12502
rthumb 14.5351 -47.7058
lclavicle 7.65321e-015 -1.33186e-014
lhumerus -34.9266 -16.9007 78.6029
lradius 58.0126
lwrist 1.65573
lhand -1.73114 9.23719
lfingers 7.12502
lthumb 23.9312 37.7659
rfemur -16.5799 12.1945 22.7191
rtibia 27.2605
rfoot -15.1314 0.6954
rtoes 4.15801
lfemur -18.529 -6.78695 -8.83034
ltibia 28.114
lfoot -18.8691 -7.28869
ltoes -3.84022
1145
root 46.5459 17.5688 0.795809 -340.372 100.153 -344.727
lowerback 20.8072 0.0114288 3.10937
upperback 6.30698 1.10133 -0.268671
thorax -4.71715 0.739885 -2.34251
lowerneck 1.27216 9.75254 10.2094
upperneck -1.58739 13.2033 -14.3361
head 0.989669 6.67892 -5.69823
rclavicle 1.36664e-014 8.05078e-015
rhumerus -39.6799 11.3831 -83.3334
rradius 49.2581
rwrist -1.01202
rhand -11.4812 -18.1849
rfingers 7.12502
rthumb 14.5569 -47.6541
lclavicle 1.36664e-014 8.05078e-015
lhumerus -34.9375 -16.8145 78.6906
lradius 57.2075
lwrist 1.40659
lhand -1.1785 9.41565
lfingers 7.12502
lthumb 24.4611 37.8738
rfemur -16.3967 12.1303 22.736
rtibia 27.3492
rfoot -15.2435 0.574781
rtoes 4.09405
lfemur -18.3609 -6.90729 -8.88443
ltibia 28.0831
lfoot -18.876 -7.34429
ltoes -3.84939
1146
root 46.5502 17.5654 0.800456 -341.004 100.288 -345.192
lowerback 20.7739 0.0247826 3.17652
upperback 6.30934 1.13219 -0.264678
thorax -4.6942 0.755858 -2.38317
lowerneck 1.34452 9.93126 10.2737
upperneck -1.52192 13.4601 -14.4441
head 1.0409 6.80884 -5.72735
rclavicle 1.95803e-014 -6.55989e-015
rhumerus -39.7183 11.3387 -83.4397
rradius 49.3683
rwrist -1.06154
rhand -11.4625 -18.1334
rfingers 7.12502
rthumb 14.575 -47.6013
lclavicle 1.95803e-014 -6.55989e-015
lhumerus -34.9493 -16.7082 78.7644
lradius 56.4303
lwrist 1.14476
lhand -0.627061 9.60446
lfingers 7.12502
lthumb 24.9896 37.9901
rfemur -16.2102 12.0611 22.7562
rtibia 27.4446
rfoot -15.3599 0.455104
rtoes 4.05285
lfemur -18.1855 -7.03394 -8.9369
ltibia 28.0445
lfoot -18.8816 -7.40122
ltoes -3.85882
1147
root 46.5547 17.5619 0.80532 -341.723 100.428 -345.738
lowerback 20.7376 0.0431211 3.23701
upperback 6.3144 1.16787 -0.266693
thorax -4.66642 0.774475 -2.42749
lowerneck 1.41879 10.108 10.3427
upperneck -1.45402 13.7148 -14.5433
head 1.09235 6.93756 -5.75429
rclavicle 2.87741e-014 -1.45113e-014
rhumerus -39.7592 11.28 -83.5443
rradius 49.4651
rwrist -1.09908
rhand -11.4458 -18.0712
rfingers 7.12502
rthumb 14.591 -47.5379
lclavicle 2.87741e-014 -1.45113e-014
lhumerus -34.9591 -16.5825 78.8216
lradius 55.6901
lwrist 0.877775
lhand -0.0874114 9.80053
lfingers 7.12502
lthumb 25.5066 38.1133
rfemur -16.0178 11.9798 22.7621
rtibia 27.5473
rfoot -15.4825 0.338803
rtoes 4.01674
lfemur -17.9988 -7.17143 -9.00764
ltibia 27.9959
lfoot -18.8852 -7.4576
ltoes -3.872
1148
root 46.5595 17.5585 0.810571 -342.511 100.579 -346.349
lowerback 20.6996 0.0651671 3.29268
upperback 6.32052 1.20712 -0.273496
thorax -4.63629 0.795013 -2.47493
lowerneck 1.49543 10.2848 10.411
upperneck -1.3826 13.9698 -14.6272
head 1.14368 7.0663 -5.7762
rclavicle 4.24902e-014 6.95746e-016
rhumerus -39.8003 11.2012 -83.6444
rradius 49.5484
rwrist -1.11891
rhand -11.4051 -18.0114
rfingers 7.12502
rthumb 14.6302 -47.4753
lclavicle 4.24902e-014 6.95746e-016
lhumerus -34.9713 -16.4301 78.8602
lradius 54.9955
lwrist 0.610206
lhand 0.447593 10.0103
lfingers 7.12502
lthumb 26.019 38.2488
rfemur -15.8202 11.8898 22.7574
rtibia 27.656
rfoot -15.6111 0.21762
rtoes 3.98622
lfemur -17.8042 -7.3161 -9.09191
ltibia 27.937
lfoot -18.8838 -7.52068
ltoes -3.87946
1149
root 46.5645 17.5551 0.816325 -343.307 100.748 -346.97
lowerback 20.6544 0.0886364 3.35336
upperback 6.32576 1.24873 -0.281975
thorax -4.60299 0.816764 -2.52738
lowerneck 1.57084 10.4664 10.491
upperneck -1.30521 14.2323 -14.711
head 1.19912 7.19854 -5.79865
rclavicle 2.74323e-014 -2.90226e-014
rhumerus -39.8435 11.1055 -83.7403
rradius 49.6184
rwrist -1.11525
rhand -11.3344 -17.9577
rfingers 7.12502
rthumb 14.6983 -47.4166
lclavicle 2.74323e-014 -2.90226e-014
lhumerus -34.9887 -16.2515 78.879
lradius 54.3549
lwrist 0.344826
lhand 0.964449 10.2287
lfingers 7.12502
lthumb 26.5138 38.3935
rfemur -15.6243 11.793 22.7525
rtibia 27.7711
rfoot -15.745 0.0896142
rtoes 3.97671
lfemur -17.61 -7.46851 -9.17591
ltibia 27.8669
lfoot -18.8752 -7.59341
ltoes -3.89122
